<?xml version="1.0" encoding="utf-8"?>
<!-- Generator: Adobe Illustrator 19.1.0, SVG Export Plug-In . SVG Version: 6.00 Build 0)  -->
<svg version="1.1" id="Layer_1" xmlns="http://www.w3.org/2000/svg" xmlns:xlink="http://www.w3.org/1999/xlink" x="0px" y="0px"
	 viewBox="-454 251.9 49.2 58.1" style="enable-background:new -454 251.9 49.2 58.1;" xml:space="preserve">
<style type="text/css">
	.st0{fill:#FFFFFF;}
</style>
<path class="st0" d="M-410.5,264.5c0-0.3,0-0.5,0-0.7c0-6.6-5.3-11.9-11.9-11.9c-5.7,0-10.5,4-11.6,9.5c-1.4-0.8-3-1.2-4.6-1.2
	c-5.1,0-9.3,4.2-9.3,9.3c0,0.1,0,0.2,0,0.4h1.5c0-0.1,0-0.2,0-0.4c0-4.3,3.5-7.8,7.8-7.8c1.7,0,3.3,0.6,4.7,1.6
	c0.2,0.2,0.5,0.2,0.8,0.1c0.2-0.1,0.4-0.3,0.4-0.6c0.5-5.3,5-9.3,10.3-9.3c5.7-0.1,10.4,4.6,10.4,10.3c0,0.4,0,0.8-0.1,1.2
	c0,0.4,0.2,0.8,0.6,0.8c3,0.6,5.2,3.2,5.2,6.3c0,4-3.7,7.2-7.9,6.2c-0.3-0.1-0.7,0.1-0.8,0.4c-0.6,1.3-1.7,2.3-2.9,2.9v1.6
	c1.6-0.6,3-1.8,4-3.4c4.9,0.8,9.2-3,9.2-7.8C-404.8,268.6-407.2,265.5-410.5,264.5z"/>
<path class="st0" d="M-419.7,310h-33.5c-0.4,0-0.8-0.3-0.8-0.8v-37.6c0-0.4,0.3-0.7,0.8-0.7h33.6c0.4,0,0.8,0.3,0.8,0.8v37.6
	C-418.9,309.7-419.2,310-419.7,310z M-452.5,308.5h32.1v-36.1h-32.1V308.5z"/>
<g>
	<path class="st0" d="M-423.7,301.8h-25.5c-0.4,0-0.8-0.3-0.8-0.8v-25.3c0-0.4,0.3-0.8,0.8-0.8h25.4c0.4,0,0.8,0.3,0.8,0.8v25.4
		C-423,301.5-423.3,301.8-423.7,301.8z M-448.4,300.3h23.9v-23.9h-23.9V300.3z"/>
</g>
<g>
	<g>
		<path class="st0" d="M-431.2,287.5c-0.3,0-0.5-0.1-0.7-0.3l-4.6-4.6l-4.5,4.6c-0.4,0.4-1,0.4-1.4,0c-0.4-0.4-0.4-1,0-1.4l5.3-5.3
			c0.4-0.4,1-0.4,1.4,0l5.3,5.3c0.4,0.4,0.4,1,0,1.4C-430.7,287.4-430.9,287.5-431.2,287.5z"/>
	</g>
</g>
<g>
	<g>
		<path class="st0" d="M-436.5,296.5c-0.6,0-1-0.4-1-1v-13c0-0.6,0.4-1,1-1s1,0.4,1,1v13C-435.5,296.1-435.9,296.5-436.5,296.5z"/>
	</g>
</g>
</svg>
